<svg xmlns="http://www.w3.org/2000/svg" xmlns:xlink="http://www.w3.org/1999/xlink" width="144.952" height="40" viewBox="0 0 144.952 40">
  <defs>
    <linearGradient id="linear-gradient" x1="-0.171" y1="0.166" x2="1.043" y2="0.823" gradientUnits="objectBoundingBox">
      <stop offset="0" stop-color="#fec43c"/>
      <stop offset="0.615" stop-color="#fbac33"/>
      <stop offset="1" stop-color="#faa630"/>
    </linearGradient>
    <clipPath id="clip-path">
      <rect id="Rectangle_313" data-name="Rectangle 313" width="40" height="40" transform="translate(0 -0.486)" fill="url(#linear-gradient)"/>
    </clipPath>
  </defs>
  <g id="Group_330" data-name="Group 330" transform="translate(8445 -11080)">
    <path id="Path_385" data-name="Path 385" d="M3.536-9.074c0-4.446,2.86-7.2,6.682-7.2S16.9-13.52,16.9-9.074c0,4.42-2.86,7.2-6.682,7.2S3.536-4.654,3.536-9.074Zm15.782,0a8.924,8.924,0,0,0-9.1-9.256,8.939,8.939,0,0,0-9.1,9.256,8.939,8.939,0,0,0,9.1,9.256,10.284,10.284,0,0,0,2.7-.364l3.614,3.614H19.6l-4.576-4.55A9.033,9.033,0,0,0,19.318-9.074ZM36.01-7.15a6.955,6.955,0,0,0-7.2-7.332,6.969,6.969,0,0,0-7.2,7.332c0,4.524,3.068,7.384,7.1,7.384A7.065,7.065,0,0,0,36.01-7.15Zm-11.986,0c0-3.588,2.262-5.278,4.758-5.278,2.444,0,4.81,1.69,4.81,5.278,0,3.614-2.418,5.3-4.888,5.3S24.024-3.536,24.024-7.15ZM49.556,0H51.9V-8.4c0-4.082-2.522-6.11-5.824-6.11A5.263,5.263,0,0,0,41.5-12.22v-2.028H39.13V0H41.5V-7.878c0-3.068,1.664-4.576,4.082-4.576,2.392,0,3.978,1.482,3.978,4.394ZM61.828-12.48a4.181,4.181,0,0,1,4.5,4.316h-9A4.412,4.412,0,0,1,61.828-12.48Zm6.656,8.086H65.936a3.916,3.916,0,0,1-4,2.626A4.479,4.479,0,0,1,57.3-6.24H68.692a12.827,12.827,0,0,0,.078-1.43,6.531,6.531,0,0,0-6.838-6.812c-4.16,0-7.046,2.834-7.046,7.332,0,4.524,2.99,7.384,7.046,7.384A6.407,6.407,0,0,0,68.484-4.394Zm2.522-2.782c0,4.42,2.938,7.41,6.708,7.41a6.042,6.042,0,0,0,5.356-2.86V6.76h2.392V-14.248H83.07v2.6a5.9,5.9,0,0,0-5.278-2.834C73.944-14.482,71.006-11.622,71.006-7.176ZM83.07-7.15c0,3.354-2.236,5.3-4.836,5.3s-4.81-1.976-4.81-5.33,2.21-5.252,4.81-5.252S83.07-10.452,83.07-7.15ZM89.986-3.9c0,2.86,1.43,3.9,3.952,3.9H96.07V-2H94.328c-1.456,0-1.976-.494-1.976-1.9v-8.4H96.07v-1.95H92.352v-3.588H89.986v3.588H88.14v1.95h1.846Z" transform="translate(-8396.118 11105.33)" fill="#9ea9b8"/>
    <g id="Qoneqt_logo" data-name="Qoneqt logo" transform="translate(-8445 11080.486)" clip-path="url(#clip-path)">
      <path id="Path_384" data-name="Path 384" d="M22.157.114a19.94,19.94,0,0,1-.134,39.634,29.74,29.74,0,0,1-4.48-.027,19.97,19.97,0,0,1-10.184-4.3,25.307,25.307,0,0,1-2.709-2.66A19.888,19.888,0,0,1,.075,22.083,30.113,30.113,0,0,1,.1,17.523,19.955,19.955,0,0,1,18.434.033a27.859,27.859,0,0,1,3.722.08ZM12.3,18.018a7.877,7.877,0,0,1,15.468-.075,9.224,9.224,0,0,1,0,3.048,7.96,7.96,0,0,1-1.781,3.627l-.28.311,2.054,3.82c1.126,2.1,2.113,3.933,2.188,4.067l.134.24-.209-.182c-.107-.092-1.369-1.27-2.908-2.706l-.491-.458a42.965,42.965,0,0,0-3.3-2.972,4.04,4.04,0,0,0-.649.2,7.949,7.949,0,0,1-4.9.038,7.56,7.56,0,0,1-3.12-1.937,7.692,7.692,0,0,1-2.2-4.078,8.59,8.59,0,0,1-.008-2.942Z" transform="translate(-0.001 -0.306)" fill-rule="evenodd" fill="url(#linear-gradient)"/>
    </g>
  </g>
</svg>
